<svg xmlns="http://www.w3.org/2000/svg" xmlns:xlink="http://www.w3.org/1999/xlink" version="1.1" width="256" height="256" viewBox="0 0 256 256" xml:space="preserve">

<defs>
</defs>
<g style="stroke: none; stroke-width: 0; stroke-dasharray: none; stroke-linecap: butt; stroke-linejoin: miter; stroke-miterlimit: 10; fill: none; fill-rule: nonzero; opacity: 1;" transform="translate(1.4065934065934016 1.4065934065934016) scale(2.81 2.81)" >
	<path d="M 53.167 69.933 c -0.828 0 -1.5 0.672 -1.5 1.5 c 0 1.284 -0.829 2.369 -1.812 2.369 h -9.712 c -0.981 0 -1.811 -1.085 -1.811 -2.369 V 60.084 c 0 -1.284 0.83 -2.369 1.811 -2.369 h 9.712 c 0.982 0 1.812 1.085 1.812 2.369 c 0 0.828 0.672 1.5 1.5 1.5 s 1.5 -0.672 1.5 -1.5 c 0 -2.961 -2.158 -5.369 -4.812 -5.369 H 46.5 v -2.424 c 0 -0.828 -0.671 -1.5 -1.5 -1.5 s -1.5 0.672 -1.5 1.5 v 2.424 h -3.356 c -2.653 0 -4.811 2.408 -4.811 5.369 v 11.349 c 0 2.961 2.158 5.369 4.811 5.369 H 43.5 v 2.424 c 0 0.828 0.671 1.5 1.5 1.5 s 1.5 -0.672 1.5 -1.5 v -2.424 h 3.356 c 2.653 0 4.812 -2.408 4.812 -5.369 C 54.667 70.605 53.996 69.933 53.167 69.933 z" style="stroke: none; stroke-width: 1; stroke-dasharray: none; stroke-linecap: butt; stroke-linejoin: miter; stroke-miterlimit: 10; fill: rgb(0,0,0); fill-rule: nonzero; opacity: 1;" transform=" matrix(1 0 0 1 0 0) " stroke-linecap="round" />
	<path d="M 75.302 28.461 c 0 -3.347 -2.713 -6.06 -6.06 -6.06 c -3.347 0 -6.06 2.713 -6.06 6.06 c 0 2.835 1.95 5.209 4.58 5.871 c -0.008 0.063 -0.019 0.125 -0.019 0.19 v 6.445 l -6.091 7.182 c -2.029 -1.919 -4.386 -3.492 -6.983 -4.622 V 28.769 l 7.852 -10.075 c 0.205 -0.263 0.316 -0.588 0.316 -0.922 v -5.652 c 0 -0.065 -0.011 -0.127 -0.019 -0.19 c 2.63 -0.662 4.579 -3.035 4.579 -5.87 c 0 -3.347 -2.713 -6.06 -6.06 -6.06 c -3.347 0 -6.06 2.713 -6.06 6.06 c 0 2.835 1.95 5.209 4.58 5.871 c -0.008 0.063 -0.019 0.125 -0.019 0.19 v 5.136 l -7.852 10.075 c -0.205 0.263 -0.316 0.588 -0.316 0.922 v 14.199 c -2.119 -0.605 -4.354 -0.936 -6.667 -0.936 c -1.686 0 -3.331 0.173 -4.92 0.5 V 29.062 c 0 -0.334 -0.111 -0.659 -0.317 -0.922 l -4.874 -6.254 v -9.765 c 0 -0.065 -0.011 -0.127 -0.019 -0.19 c 2.63 -0.662 4.58 -3.035 4.58 -5.871 c 0 -3.347 -2.713 -6.06 -6.06 -6.06 c -3.347 0 -6.06 2.713 -6.06 6.06 c 0 2.835 1.95 5.209 4.579 5.871 c -0.008 0.063 -0.019 0.125 -0.019 0.19 v 10.28 c 0 0.334 0.111 0.659 0.317 0.922 l 4.874 6.254 v 13.27 c -3.289 1.137 -6.255 2.96 -8.73 5.301 l -6.092 -7.182 V 29.073 c 0 -0.065 -0.011 -0.127 -0.019 -0.19 c 2.63 -0.662 4.58 -3.035 4.58 -5.871 c 0 -3.347 -2.713 -6.06 -6.06 -6.06 s -6.06 2.713 -6.06 6.06 c 0 2.835 1.95 5.209 4.579 5.871 c -0.008 0.063 -0.019 0.125 -0.019 0.19 v 12.443 c 0 0.355 0.126 0.699 0.356 0.97 l 6.529 7.699 c 0.047 0.056 0.102 0.1 0.156 0.147 c -3.461 4.191 -5.541 9.566 -5.541 15.426 C 20.758 79.147 31.612 90 45 90 s 24.242 -10.853 24.242 -24.242 c 0 -5.86 -2.08 -11.235 -5.541 -15.426 c 0.053 -0.047 0.108 -0.091 0.155 -0.147 l 6.529 -7.699 c 0.23 -0.271 0.356 -0.615 0.356 -0.97 v -6.995 c 0 -0.065 -0.011 -0.127 -0.019 -0.19 C 73.352 33.67 75.302 31.296 75.302 28.461 z M 58.275 6.06 c 0 -1.688 1.373 -3.06 3.06 -3.06 c 1.688 0 3.06 1.373 3.06 3.06 c 0 1.688 -1.373 3.06 -3.06 3.06 C 59.648 9.121 58.275 7.748 58.275 6.06 z M 30.329 6.06 c 0 -1.688 1.373 -3.06 3.06 -3.06 s 3.06 1.373 3.06 3.06 c 0 1.688 -1.373 3.06 -3.06 3.06 S 30.329 7.748 30.329 6.06 z M 17.698 23.013 c 0 -1.688 1.373 -3.06 3.06 -3.06 s 3.06 1.373 3.06 3.06 c 0 1.688 -1.373 3.06 -3.06 3.06 S 17.698 24.701 17.698 23.013 z M 45 87 c -11.713 0 -21.242 -9.529 -21.242 -21.242 c 0 -11.713 9.529 -21.242 21.242 -21.242 c 11.713 0 21.242 9.529 21.242 21.242 C 66.242 77.471 56.713 87 45 87 z M 69.242 31.522 c -1.688 0 -3.06 -1.373 -3.06 -3.06 s 1.373 -3.06 3.06 -3.06 c 1.688 0 3.06 1.373 3.06 3.06 S 70.929 31.522 69.242 31.522 z" style="stroke: none; stroke-width: 1; stroke-dasharray: none; stroke-linecap: butt; stroke-linejoin: miter; stroke-miterlimit: 10; fill: rgb(0,0,0); fill-rule: nonzero; opacity: 1;" transform=" matrix(1 0 0 1 0 0) " stroke-linecap="round" />
</g>
</svg>